<svg xmlns="http://www.w3.org/2000/svg" viewBox="0 0 24 24" id="Linux"><path d="M19.418 16.819a.5.5 0 0 1-.498-.557c.356-3.143-1.336-5.363-2.571-6.985-.573-.753-1.068-1.403-1.264-2.011-.14-.436-.22-.982-.312-1.616-.36-2.489-.812-4.394-3.023-4.394-1.016 0-1.785.306-2.353.935-.905 1.004-1.27 2.863-1.025 5.234.174 1.686-.477 2.687-1.165 3.747-.74 1.141-1.507 2.32-1.507 4.674a.5.5 0 0 1-1 0c0-2.649.925-4.074 1.669-5.219.64-.986 1.146-1.766 1.009-3.099-.194-1.88-.13-4.448 1.277-6.008C9.412.681 10.454.255 11.75.255c3.253 0 3.711 3.159 4.014 5.25.082.564.159 1.099.272 1.453.144.445.591 1.032 1.108 1.712 1.338 1.757 3.17 4.162 2.77 7.704a.5.5 0 0 1-.496.445z" fill="#737373" class="color000000 svgShape"></path><path d="M13.703 7.281a.499.499 0 0 1-.476-.65c.368-1.167.374-2.157.016-2.647-.18-.246-.452-.367-.834-.369-.143-.028-.3.053-.414.173-.269.283-.381.843-.423 1.308.015.369-.01.65-.018.723a.486.486 0 0 1-.507.45.498.498 0 0 1-.489-.47 5.439 5.439 0 0 1 .011-.741c-.027-.497-.137-1.039-.392-1.293-.081-.081-.212-.169-.479-.145-1.147.114-.981 2.642-.979 2.667a.5.5 0 0 1-.455.541.505.505 0 0 1-.541-.455c-.114-1.311.155-3.576 1.876-3.748.508-.052.953.099 1.286.433.078.078.148.164.21.256.053-.075.109-.146.172-.213a1.533 1.533 0 0 1 1.139-.486h.008c.702.004 1.268.273 1.638.779.561.77.606 2.025.129 3.538a.503.503 0 0 1-.478.349z" fill="#737373" class="color000000 svgShape"></path><path d="M10.637 9.376c-1.287 0-2.599-1.932-2.851-2.324-.076-.117-.1-.263-.063-.398s.127-.25.252-.315c3.468-1.813 5.761.161 5.857.246a.499.499 0 0 1 .033.715c-.315.339-1.952 2.028-3.179 2.076h-.049zM8.959 6.979c.518.677 1.233 1.396 1.674 1.396l.015-.001c.494-.019 1.393-.701 2.07-1.34-.653-.35-1.975-.795-3.759-.055z" fill="#737373" class="color000000 svgShape"></path><path d="M9.75 6.579a.5.5 0 0 1-.5-.5V5.25a.5.5 0 0 1 1 0v.829a.5.5 0 0 1-.5.5zm2.661.276a.5.5 0 0 1-.5-.5V5.25a.5.5 0 0 1 1 0v1.105c0 .277-.223.5-.5.5zm-5.599 9.964a.5.5 0 0 1-.497-.454c-.327-3.517 2.895-7.937 3.033-8.124a.498.498 0 0 1 .698-.105.498.498 0 0 1 .106.699c-.031.042-3.133 4.3-2.842 7.438a.5.5 0 0 1-.498.546zm9.313 0h-.019a.501.501 0 0 1-.481-.519c.178-4.841-3.225-8.198-3.259-8.231a.501.501 0 0 1-.012-.707.502.502 0 0 1 .707-.012c.154.149 3.757 3.706 3.563 8.987a.499.499 0 0 1-.499.482z" fill="#737373" class="color000000 svgShape"></path><path d="M7.974 23.128c-.646 0-1.384-.129-2.084-.25a21.908 21.908 0 0 0-1.4-.214c-1.594-.17-2.553-.581-2.851-1.222-.157-.339-.117-.714.114-1.056.378-.56.273-.726.064-1.057-.225-.354-.562-.889-.082-1.708.385-.655 1.037-.644 1.475-.636.404.008.543-.01.643-.145l.062-.084c.417-.563.89-1.203 1.557-1.23.238-.011.6.063.948.463.864.991 3.66 4.351 3.365 5.975-.166.905-.894 1.164-1.811 1.164zm-4.913-5.143c-.314 0-.396.03-.462.143-.173.294-.123.373.063.668.265.418.663 1.049-.081 2.15-.011.166.416.553 2.014.724.469.05.97.137 1.466.223 1.236.214 2.637.46 2.739-.107.151-.829-1.502-3.266-3.135-5.137-.087-.1-.141-.122-.154-.122-.188.008-.596.561-.792.826l-.063.085c-.421.567-1.045.558-1.464.549-.048-.002-.091-.002-.131-.002zm-.894-.11h.01-.01zm14.136 5.443c-.337 0-.677-.07-1.019-.234-1.079-.518-1.298-2.583-1.157-4.194.081-.932.35-2.531 1.238-2.78.129-.036.521-.147.85.075.316.215.355.572.384.834.038.347.059.352.171.375.188.043.542-.374.793-.676.411-.498 1.032-1.25 1.804-.734.683.455.641 1.102.612 1.529-.031.485-.043.667.669.876.652.191.813.617.852.854.16 1.007-1.234 2.086-1.841 2.503l-.204.141c-1.024.706-2.074 1.431-3.152 1.431zm-.587-1.136c.915.44 2.011-.317 3.17-1.118l.206-.143c1.041-.715 1.443-1.354 1.419-1.521 0 .01-.037-.02-.145-.052-1.48-.434-1.421-1.352-1.386-1.9.027-.409.016-.509-.169-.632-.062.035-.323.351-.479.539-.436.527-.983 1.185-1.768 1.018-.845-.176-.923-.898-.961-1.245a1.772 1.772 0 0 0-.003-.025c-.23.252-.598 1.582-.496 3.185.074 1.14.36 1.774.612 1.894z" fill="#737373" class="color000000 svgShape"></path><path d="M11.901 21.947c-1.673 0-2.866-.493-2.94-.525a.499.499 0 0 1-.265-.654.498.498 0 0 1 .654-.267c.023.011 2.424.991 5.062-.007a.502.502 0 0 1 .354.936 8.074 8.074 0 0 1-2.865.517z" fill="#737373" class="color000000 svgShape"></path></svg>