<svg xmlns="http://www.w3.org/2000/svg" viewBox="0 0 60 60" id="Slack"><path d="M35.5 8a4.512 4.512 0 0 0-4.5 4.5v12c0 2.476 2.024 4.5 4.5 4.5s4.5-2.024 4.5-4.5v-12c0-2.476-2.024-4.5-4.5-4.5zm0 2c1.402 0 2.5 1.098 2.5 2.5v12c0 1.402-1.098 2.5-2.5 2.5S33 25.902 33 24.5v-12c0-1.402 1.098-2.5 2.5-2.5zM47 19c-2.75 0-5 2.25-5 5v4a1 1 0 0 0 1 1h4c2.75 0 5-2.25 5-5s-2.25-5-5-5zm0 2c1.669 0 3 1.331 3 3s-1.331 3-3 3h-3v-3c0-1.669 1.331-3 3-3z" color="#000" style="font-feature-settings:normal;font-variant-alternates:normal;font-variant-caps:normal;font-variant-east-asian:normal;font-variant-ligatures:normal;font-variant-numeric:normal;font-variant-position:normal;font-variation-settings:normal;inline-size:0;isolation:auto;mix-blend-mode:normal;shape-margin:0;shape-padding:0;text-decoration-color:#000;text-decoration-line:none;text-decoration-style:solid;text-indent:0;text-orientation:mixed;text-transform:none" fill="#737373" class="color000000 svgShape"></path><path d="M35.5-52a4.512 4.512 0 0 0-4.5 4.5v12c0 2.476 2.024 4.5 4.5 4.5s4.5-2.024 4.5-4.5v-12c0-2.476-2.024-4.5-4.5-4.5zm0 2c1.402 0 2.5 1.098 2.5 2.5v12c0 1.402-1.098 2.5-2.5 2.5S33-34.098 33-35.5v-12c0-1.402 1.098-2.5 2.5-2.5z" color="#000" transform="rotate(90)" style="font-feature-settings:normal;font-variant-alternates:normal;font-variant-caps:normal;font-variant-east-asian:normal;font-variant-ligatures:normal;font-variant-numeric:normal;font-variant-position:normal;font-variation-settings:normal;inline-size:0;isolation:auto;mix-blend-mode:normal;shape-margin:0;shape-padding:0;text-decoration-color:#000;text-decoration-line:none;text-decoration-style:solid;text-indent:0;text-orientation:mixed;text-transform:none" fill="#737373" class="color000000 svgShape"></path><path d="M32 42a1 1 0 0 0-1 1v4c0 2.75 2.25 5 5 5s5-2.25 5-5-2.25-5-5-5h-4zm1 2h3c1.669 0 3 1.331 3 3s-1.331 3-3 3-3-1.331-3-3v-3z" color="#000" style="font-feature-settings:normal;font-variant-alternates:normal;font-variant-caps:normal;font-variant-east-asian:normal;font-variant-ligatures:normal;font-variant-numeric:normal;font-variant-position:normal;font-variation-settings:normal;inline-size:0;isolation:auto;mix-blend-mode:normal;shape-margin:0;shape-padding:0;text-decoration-color:#000;text-decoration-line:none;text-decoration-style:solid;text-indent:0;text-orientation:mixed;text-transform:none" fill="#737373" class="color000000 svgShape"></path><path d="M-24.5-52a4.512 4.512 0 0 0-4.5 4.5v12c0 2.476 2.024 4.5 4.5 4.5s4.5-2.024 4.5-4.5v-12c0-2.476-2.024-4.5-4.5-4.5zm0 2c1.402 0 2.5 1.098 2.5 2.5v12c0 1.402-1.098 2.5-2.5 2.5s-2.5-1.098-2.5-2.5v-12c0-1.402 1.098-2.5 2.5-2.5z" color="#000" transform="scale(-1)" style="font-feature-settings:normal;font-variant-alternates:normal;font-variant-caps:normal;font-variant-east-asian:normal;font-variant-ligatures:normal;font-variant-numeric:normal;font-variant-position:normal;font-variation-settings:normal;inline-size:0;isolation:auto;mix-blend-mode:normal;shape-margin:0;shape-padding:0;text-decoration-color:#000;text-decoration-line:none;text-decoration-style:solid;text-indent:0;text-orientation:mixed;text-transform:none" fill="#737373" class="color000000 svgShape"></path><path d="M13 31c-2.75 0-5 2.25-5 5s2.25 5 5 5 5-2.25 5-5v-4a1 1 0 0 0-1-1h-4zm0 2h3v3c0 1.669-1.331 3-3 3s-3-1.331-3-3 1.331-3 3-3z" color="#000" style="font-feature-settings:normal;font-variant-alternates:normal;font-variant-caps:normal;font-variant-east-asian:normal;font-variant-ligatures:normal;font-variant-numeric:normal;font-variant-position:normal;font-variation-settings:normal;inline-size:0;isolation:auto;mix-blend-mode:normal;shape-margin:0;shape-padding:0;text-decoration-color:#000;text-decoration-line:none;text-decoration-style:solid;text-indent:0;text-orientation:mixed;text-transform:none" fill="#737373" class="color000000 svgShape"></path><path d="M-24.5 8a4.512 4.512 0 0 0-4.5 4.5v12c0 2.476 2.024 4.5 4.5 4.5s4.5-2.024 4.5-4.5v-12c0-2.476-2.024-4.5-4.5-4.5zm0 2c1.402 0 2.5 1.098 2.5 2.5v12c0 1.402-1.098 2.5-2.5 2.5s-2.5-1.098-2.5-2.5v-12c0-1.402 1.098-2.5 2.5-2.5z" color="#000" transform="rotate(-90)" style="font-feature-settings:normal;font-variant-alternates:normal;font-variant-caps:normal;font-variant-east-asian:normal;font-variant-ligatures:normal;font-variant-numeric:normal;font-variant-position:normal;font-variation-settings:normal;inline-size:0;isolation:auto;mix-blend-mode:normal;shape-margin:0;shape-padding:0;text-decoration-color:#000;text-decoration-line:none;text-decoration-style:solid;text-indent:0;text-orientation:mixed;text-transform:none" fill="#737373" class="color000000 svgShape"></path><path d="M24 8c-2.75 0-5 2.25-5 5s2.25 5 5 5h4a1 1 0 0 0 1-1v-4c0-2.75-2.25-5-5-5zm0 2c1.669 0 3 1.331 3 3v3h-3c-1.669 0-3-1.331-3-3s1.331-3 3-3z" color="#000" style="font-feature-settings:normal;font-variant-alternates:normal;font-variant-caps:normal;font-variant-east-asian:normal;font-variant-ligatures:normal;font-variant-numeric:normal;font-variant-position:normal;font-variation-settings:normal;inline-size:0;isolation:auto;mix-blend-mode:normal;shape-margin:0;shape-padding:0;text-decoration-color:#000;text-decoration-line:none;text-decoration-style:solid;text-indent:0;text-orientation:mixed;text-transform:none" fill="#737373" class="color000000 svgShape"></path></svg>