<svg xmlns="http://www.w3.org/2000/svg" enable-background="new 0 0 24 24" viewBox="0 0 24 24" id="SublimeText"><path d="M23.071,0.003H0.929C0.419,0.003,0,0.422,0,0.932v22.136c0,0.51,0.419,0.929,0.929,0.929h22.142c0.51,0,0.924-0.414,0.929-0.924V0.932C24,0.422,23.581,0.003,23.071,0.003z M18.822,12.099l-0.005,4.125c0.04,0.423-0.232,0.387-0.332,0.361c0.289,0.117-0.108,0.219-0.108,0.219L5.817,20.812c-0.612,0.258-0.666-0.188-0.666-0.188s0.081-2.412,0.005-3.61c-0.075-1.198,0.564-1.219,0.564-1.219l5.29-1.615L6,12.567c-0.886-0.188-0.843-0.655-0.843-0.655L5.184,8.21C5.039,7.367,5.533,7.249,5.533,7.249l12.559-3.986c0,0,0.892-0.467,0.677,0.397L18.8,7.501c0,0,0.156,0.564-0.618,0.704L13.08,9.8l5.087,1.595C18.94,11.675,18.822,12.099,18.822,12.099z" fill="#737373" class="color000000 svgShape"></path></svg>